<svg width="256" height="256" viewBox="0 0 512 512" xmlns="http://www.w3.org/2000/svg">
  <defs><linearGradient id="g" x1="0" y1="0" x2="1" y2="1">
    <stop offset="0" stop-color="#0ea5e9"/><stop offset="1" stop-color="#2563eb"/></linearGradient></defs>
  <rect width="512" height="512" rx="48" fill="url(#g)"/>
  <g fill="#fff">
    <path d="M90 300c40-30 80-30 120 0s80 30 120 0 80-30 120 0v40c-40-30-80-30-120 0s-80 30-120 0-80-30-120 0V300z" opacity="0.9"/>
    <path d="M120 210c25-20 50-20 75 0s50 20 75 0 50-20 75 0v30c-25-20-50-20-75 0s-50 20-75 0-50-20-75 0V210z" opacity="0.85"/>
    <text x="256" y="460" font-family="Helvetica, Arial, sans-serif" font-size="64" text-anchor="middle" font-weight="700">SwimForge</text>
  </g>
</svg>